<mxfile host="app.diagrams.net" agent="Mozilla/5.0 (Windows NT 10.0; Win64; x64) AppleWebKit/537.36 (KHTML, like Gecko) Chrome/131.0.0.0 Safari/537.36 Edg/131.0.0.0" version="24.8.4">
  <diagram id="C5RBs43oDa-KdzZeNtuy" name="Page-1">
    <mxGraphModel dx="1582" dy="860" grid="1" gridSize="10" guides="1" tooltips="1" connect="1" arrows="1" fold="1" page="1" pageScale="1" pageWidth="827" pageHeight="1169" math="0" shadow="0">
      <root>
        <mxCell id="WIyWlLk6GJQsqaUBKTNV-0" />
        <mxCell id="WIyWlLk6GJQsqaUBKTNV-1" parent="WIyWlLk6GJQsqaUBKTNV-0" />
        <mxCell id="WIyWlLk6GJQsqaUBKTNV-2" value="" style="rounded=0;html=1;jettySize=auto;orthogonalLoop=1;fontSize=11;endArrow=block;endFill=0;endSize=8;strokeWidth=1;shadow=0;labelBackgroundColor=none;edgeStyle=orthogonalEdgeStyle;" parent="WIyWlLk6GJQsqaUBKTNV-1" source="WIyWlLk6GJQsqaUBKTNV-3" target="WIyWlLk6GJQsqaUBKTNV-6" edge="1">
          <mxGeometry relative="1" as="geometry" />
        </mxCell>
        <mxCell id="WIyWlLk6GJQsqaUBKTNV-3" value="Home page" style="rounded=1;whiteSpace=wrap;html=1;fontSize=12;glass=0;strokeWidth=1;shadow=0;fillColor=#d5e8d4;strokeColor=#82b366;" parent="WIyWlLk6GJQsqaUBKTNV-1" vertex="1">
          <mxGeometry x="150" y="80" width="120" height="40" as="geometry" />
        </mxCell>
        <mxCell id="WIyWlLk6GJQsqaUBKTNV-4" value="Sign_up" style="rounded=0;html=1;jettySize=auto;orthogonalLoop=1;fontSize=11;endArrow=block;endFill=0;strokeWidth=1;shadow=0;labelBackgroundColor=none;edgeStyle=orthogonalEdgeStyle;entryX=0.5;entryY=0;entryDx=0;entryDy=0;shape=link;fillColor=#d5e8d4;strokeColor=#82b366;" parent="WIyWlLk6GJQsqaUBKTNV-1" source="WIyWlLk6GJQsqaUBKTNV-6" target="8x2u2lRudaeTyQuYko0E-5" edge="1">
          <mxGeometry x="0.3401" y="-30" relative="1" as="geometry">
            <mxPoint as="offset" />
            <mxPoint x="210" y="380" as="targetPoint" />
          </mxGeometry>
        </mxCell>
        <mxCell id="WIyWlLk6GJQsqaUBKTNV-6" value="&lt;font style=&quot;font-size: 8px;&quot;&gt;Check if doctor&lt;/font&gt;&lt;span style=&quot;font-size: 8px; background-color: initial;&quot;&gt;&amp;nbsp;is&lt;/span&gt;&lt;div&gt;&lt;font style=&quot;font-size: 8px;&quot;&gt;&amp;nbsp;sign_in or sign_up&lt;/font&gt;&lt;/div&gt;" style="rhombus;whiteSpace=wrap;html=1;shadow=0;fontFamily=Helvetica;fontSize=12;align=center;strokeWidth=1;spacing=6;spacingTop=-4;fillColor=#dae8fc;strokeColor=#6c8ebf;" parent="WIyWlLk6GJQsqaUBKTNV-1" vertex="1">
          <mxGeometry x="160" y="180" width="100" height="80" as="geometry" />
        </mxCell>
        <mxCell id="8x2u2lRudaeTyQuYko0E-12" value="" style="edgeStyle=orthogonalEdgeStyle;rounded=0;orthogonalLoop=1;jettySize=auto;html=1;shape=link;fillColor=#d5e8d4;strokeColor=#82b366;" edge="1" parent="WIyWlLk6GJQsqaUBKTNV-1" source="WIyWlLk6GJQsqaUBKTNV-7" target="WIyWlLk6GJQsqaUBKTNV-6">
          <mxGeometry relative="1" as="geometry" />
        </mxCell>
        <mxCell id="WIyWlLk6GJQsqaUBKTNV-7" value="Add Doctor" style="rounded=0;whiteSpace=wrap;html=1;fontSize=12;glass=0;strokeWidth=1;shadow=0;fillColor=#f8cecc;strokeColor=#b85450;" parent="WIyWlLk6GJQsqaUBKTNV-1" vertex="1">
          <mxGeometry x="350" y="190" width="80" height="60" as="geometry" />
        </mxCell>
        <mxCell id="WIyWlLk6GJQsqaUBKTNV-8" value="No&lt;div&gt;message&amp;nbsp;&lt;/div&gt;&lt;div&gt;(invalid)&lt;/div&gt;" style="rounded=0;html=1;jettySize=auto;orthogonalLoop=1;fontSize=11;endArrow=block;endFill=0;endSize=8;strokeWidth=1;shadow=0;labelBackgroundColor=none;edgeStyle=orthogonalEdgeStyle;exitX=0.5;exitY=1;exitDx=0;exitDy=0;" parent="WIyWlLk6GJQsqaUBKTNV-1" source="WIyWlLk6GJQsqaUBKTNV-10" edge="1">
          <mxGeometry x="-0.0811" y="30" relative="1" as="geometry">
            <mxPoint y="-1" as="offset" />
            <mxPoint x="210" y="460" as="targetPoint" />
            <Array as="points">
              <mxPoint x="210" y="590" />
              <mxPoint x="100" y="590" />
            </Array>
          </mxGeometry>
        </mxCell>
        <mxCell id="WIyWlLk6GJQsqaUBKTNV-9" value="Yes" style="edgeStyle=orthogonalEdgeStyle;rounded=0;html=1;jettySize=auto;orthogonalLoop=1;fontSize=11;endArrow=block;endFill=0;endSize=8;strokeWidth=1;shadow=0;labelBackgroundColor=none;entryX=0;entryY=0.5;entryDx=0;entryDy=0;" parent="WIyWlLk6GJQsqaUBKTNV-1" source="WIyWlLk6GJQsqaUBKTNV-10" target="8x2u2lRudaeTyQuYko0E-8" edge="1">
          <mxGeometry x="-0.1492" y="10" relative="1" as="geometry">
            <mxPoint as="offset" />
            <mxPoint x="330" y="530.0000000000001" as="targetPoint" />
          </mxGeometry>
        </mxCell>
        <mxCell id="WIyWlLk6GJQsqaUBKTNV-10" value="&lt;font style=&quot;font-size: 10px;&quot;&gt;if successful&amp;nbsp;&lt;/font&gt;&lt;div&gt;&lt;font style=&quot;font-size: 10px;&quot;&gt;sign_in&amp;nbsp;&amp;nbsp;&lt;/font&gt;&lt;/div&gt;" style="rhombus;whiteSpace=wrap;html=1;shadow=0;fontFamily=Helvetica;fontSize=12;align=center;strokeWidth=1;spacing=6;spacingTop=-4;fillColor=#dae8fc;strokeColor=#6c8ebf;" parent="WIyWlLk6GJQsqaUBKTNV-1" vertex="1">
          <mxGeometry x="160" y="490" width="100" height="80" as="geometry" />
        </mxCell>
        <mxCell id="8x2u2lRudaeTyQuYko0E-0" value="&lt;font style=&quot;font-size: 10px;&quot;&gt;if successful&amp;nbsp;&lt;/font&gt;&lt;div&gt;&lt;font style=&quot;font-size: 10px;&quot;&gt;sign in&amp;nbsp;&amp;nbsp;&lt;/font&gt;&lt;/div&gt;" style="rhombus;whiteSpace=wrap;html=1;shadow=0;fontFamily=Helvetica;fontSize=12;align=center;strokeWidth=1;spacing=6;spacingTop=-4;fillColor=#dae8fc;strokeColor=#6c8ebf;" vertex="1" parent="WIyWlLk6GJQsqaUBKTNV-1">
          <mxGeometry x="520" y="180" width="100" height="80" as="geometry" />
        </mxCell>
        <mxCell id="8x2u2lRudaeTyQuYko0E-1" value="&lt;font style=&quot;font-size: 10px;&quot;&gt;Submit information&amp;nbsp;&lt;/font&gt;" style="edgeStyle=orthogonalEdgeStyle;rounded=0;html=1;jettySize=auto;orthogonalLoop=1;fontSize=11;endArrow=block;endFill=0;endSize=8;strokeWidth=1;shadow=0;labelBackgroundColor=none;exitX=1;exitY=0.5;exitDx=0;exitDy=0;entryX=0;entryY=0.5;entryDx=0;entryDy=0;" edge="1" parent="WIyWlLk6GJQsqaUBKTNV-1" source="WIyWlLk6GJQsqaUBKTNV-7" target="8x2u2lRudaeTyQuYko0E-0">
          <mxGeometry x="0.1111" y="20" relative="1" as="geometry">
            <mxPoint as="offset" />
            <mxPoint x="460" y="209.76" as="sourcePoint" />
            <mxPoint x="510" y="209.76" as="targetPoint" />
            <Array as="points">
              <mxPoint x="520" y="220" />
            </Array>
          </mxGeometry>
        </mxCell>
        <mxCell id="8x2u2lRudaeTyQuYko0E-2" value="Yes" style="edgeStyle=orthogonalEdgeStyle;rounded=0;html=1;jettySize=auto;orthogonalLoop=1;fontSize=11;endArrow=block;endFill=0;endSize=8;strokeWidth=1;shadow=0;labelBackgroundColor=none;exitX=0.5;exitY=1;exitDx=0;exitDy=0;" edge="1" parent="WIyWlLk6GJQsqaUBKTNV-1" source="8x2u2lRudaeTyQuYko0E-0">
          <mxGeometry x="0.0256" y="-10" relative="1" as="geometry">
            <mxPoint as="offset" />
            <mxPoint x="450" y="220" as="sourcePoint" />
            <mxPoint x="210" y="290" as="targetPoint" />
            <Array as="points">
              <mxPoint x="570" y="290" />
              <mxPoint x="210" y="290" />
            </Array>
          </mxGeometry>
        </mxCell>
        <mxCell id="8x2u2lRudaeTyQuYko0E-3" value="No&lt;div&gt;message&amp;nbsp;&lt;/div&gt;&lt;div&gt;(invalid)&lt;/div&gt;" style="edgeStyle=orthogonalEdgeStyle;rounded=0;html=1;jettySize=auto;orthogonalLoop=1;fontSize=11;endArrow=block;endFill=0;endSize=8;strokeWidth=1;shadow=0;labelBackgroundColor=none;exitX=0.5;exitY=0;exitDx=0;exitDy=0;entryX=0.167;entryY=0;entryDx=0;entryDy=0;entryPerimeter=0;" edge="1" parent="WIyWlLk6GJQsqaUBKTNV-1" source="8x2u2lRudaeTyQuYko0E-0" target="WIyWlLk6GJQsqaUBKTNV-7">
          <mxGeometry x="-0.1625" y="-30" relative="1" as="geometry">
            <mxPoint as="offset" />
            <mxPoint x="450" y="220" as="sourcePoint" />
            <mxPoint x="530" y="220" as="targetPoint" />
          </mxGeometry>
        </mxCell>
        <mxCell id="8x2u2lRudaeTyQuYko0E-5" value="doctor&amp;nbsp;&lt;div&gt;Login&amp;nbsp;&lt;/div&gt;" style="rounded=0;whiteSpace=wrap;html=1;fontSize=12;glass=0;strokeWidth=1;shadow=0;fillColor=#f8cecc;strokeColor=#b85450;" vertex="1" parent="WIyWlLk6GJQsqaUBKTNV-1">
          <mxGeometry x="170" y="370" width="80" height="60" as="geometry" />
        </mxCell>
        <mxCell id="8x2u2lRudaeTyQuYko0E-7" value="" style="rounded=0;html=1;jettySize=auto;orthogonalLoop=1;fontSize=11;endArrow=block;endFill=0;endSize=8;strokeWidth=1;shadow=0;labelBackgroundColor=none;edgeStyle=orthogonalEdgeStyle;" edge="1" parent="WIyWlLk6GJQsqaUBKTNV-1">
          <mxGeometry relative="1" as="geometry">
            <mxPoint x="210" y="430" as="sourcePoint" />
            <mxPoint x="210" y="490" as="targetPoint" />
          </mxGeometry>
        </mxCell>
        <mxCell id="8x2u2lRudaeTyQuYko0E-8" value="Swip page" style="rounded=0;whiteSpace=wrap;html=1;fontSize=12;glass=0;strokeWidth=1;shadow=0;fillColor=#f8cecc;strokeColor=#b85450;" vertex="1" parent="WIyWlLk6GJQsqaUBKTNV-1">
          <mxGeometry x="334" y="500" width="80" height="60" as="geometry" />
        </mxCell>
        <mxCell id="8x2u2lRudaeTyQuYko0E-9" value="&lt;font style=&quot;font-size: 10px;&quot;&gt;Optins&lt;/font&gt;" style="edgeStyle=orthogonalEdgeStyle;rounded=0;html=1;jettySize=auto;orthogonalLoop=1;fontSize=11;endArrow=block;endFill=0;endSize=8;strokeWidth=1;shadow=0;labelBackgroundColor=none;exitX=1;exitY=0.5;exitDx=0;exitDy=0;entryX=0.021;entryY=0.508;entryDx=0;entryDy=0;entryPerimeter=0;" edge="1" parent="WIyWlLk6GJQsqaUBKTNV-1" target="8x2u2lRudaeTyQuYko0E-11">
          <mxGeometry x="-0.0623" y="10" relative="1" as="geometry">
            <mxPoint as="offset" />
            <mxPoint x="414" y="530.29" as="sourcePoint" />
            <mxPoint x="500" y="530" as="targetPoint" />
            <Array as="points">
              <mxPoint x="487" y="530" />
            </Array>
          </mxGeometry>
        </mxCell>
        <mxCell id="8x2u2lRudaeTyQuYko0E-11" value="&lt;span style=&quot;font-size: 10px;&quot;&gt;Doctor decision&lt;/span&gt;" style="rhombus;whiteSpace=wrap;html=1;shadow=0;fontFamily=Helvetica;fontSize=12;align=center;strokeWidth=1;spacing=6;spacingTop=-4;fillColor=#dae8fc;strokeColor=#6c8ebf;" vertex="1" parent="WIyWlLk6GJQsqaUBKTNV-1">
          <mxGeometry x="510" y="490" width="100" height="80" as="geometry" />
        </mxCell>
        <mxCell id="8x2u2lRudaeTyQuYko0E-14" value="&lt;font style=&quot;font-size: 8px;&quot;&gt;back to home&amp;nbsp;&lt;/font&gt;&lt;div&gt;&lt;font style=&quot;font-size: 8px;&quot;&gt;through nav bar&lt;/font&gt;&lt;/div&gt;" style="text;html=1;align=center;verticalAlign=middle;resizable=0;points=[];autosize=1;strokeColor=none;fillColor=none;spacing=-1;spacingTop=-10;spacingBottom=-4;" vertex="1" parent="WIyWlLk6GJQsqaUBKTNV-1">
          <mxGeometry x="264" y="230" width="70" height="20" as="geometry" />
        </mxCell>
        <mxCell id="8x2u2lRudaeTyQuYko0E-15" value="&lt;font style=&quot;font-size: 8px;&quot;&gt;back to home&amp;nbsp;&lt;/font&gt;&lt;div&gt;&lt;font style=&quot;font-size: 8px;&quot;&gt;through nav bar&lt;/font&gt;&lt;/div&gt;" style="text;html=1;align=center;verticalAlign=middle;resizable=0;points=[];autosize=1;strokeColor=none;fillColor=none;spacing=-1;spacingTop=-10;spacingBottom=-4;" vertex="1" parent="WIyWlLk6GJQsqaUBKTNV-1">
          <mxGeometry x="220" y="320" width="70" height="20" as="geometry" />
        </mxCell>
        <mxCell id="8x2u2lRudaeTyQuYko0E-16" value="&lt;font style=&quot;font-size: 10px;&quot;&gt;Back&lt;/font&gt;" style="edgeStyle=orthogonalEdgeStyle;rounded=0;html=1;jettySize=auto;orthogonalLoop=1;fontSize=11;endArrow=block;endFill=0;endSize=8;strokeWidth=1;shadow=0;labelBackgroundColor=none;entryX=0.5;entryY=0;entryDx=0;entryDy=0;exitX=0;exitY=0.5;exitDx=0;exitDy=0;" edge="1" parent="WIyWlLk6GJQsqaUBKTNV-1" source="8x2u2lRudaeTyQuYko0E-20" target="8x2u2lRudaeTyQuYko0E-8">
          <mxGeometry x="-0.2857" y="10" relative="1" as="geometry">
            <mxPoint as="offset" />
            <mxPoint x="600" y="410" as="sourcePoint" />
            <mxPoint x="340" y="490.0000000000001" as="targetPoint" />
            <Array as="points">
              <mxPoint x="374" y="415" />
            </Array>
          </mxGeometry>
        </mxCell>
        <mxCell id="8x2u2lRudaeTyQuYko0E-17" value="&lt;font style=&quot;font-size: 10px;&quot;&gt;Fetch&amp;nbsp;&lt;/font&gt;" style="edgeStyle=orthogonalEdgeStyle;rounded=0;html=1;jettySize=auto;orthogonalLoop=1;fontSize=11;endArrow=block;endFill=0;endSize=8;strokeWidth=1;shadow=0;labelBackgroundColor=none;exitX=1;exitY=0.5;exitDx=0;exitDy=0;entryX=0.5;entryY=1;entryDx=0;entryDy=0;" edge="1" parent="WIyWlLk6GJQsqaUBKTNV-1" source="8x2u2lRudaeTyQuYko0E-11" target="8x2u2lRudaeTyQuYko0E-20">
          <mxGeometry x="-0.2674" y="-10" relative="1" as="geometry">
            <mxPoint as="offset" />
            <mxPoint x="610" y="560" as="sourcePoint" />
            <mxPoint x="720" y="500" as="targetPoint" />
            <Array as="points">
              <mxPoint x="689" y="530" />
              <mxPoint x="689" y="490" />
              <mxPoint x="688" y="490" />
            </Array>
          </mxGeometry>
        </mxCell>
        <mxCell id="8x2u2lRudaeTyQuYko0E-20" value="if patient id &amp;amp;&amp;amp;&lt;div&gt;&amp;nbsp;patient username &amp;amp;&amp;amp;&lt;div&gt;doctor_id&amp;nbsp;&lt;span style=&quot;background-color: initial;&quot;&gt;== true&amp;nbsp;&lt;/span&gt;&lt;/div&gt;&lt;/div&gt;" style="rhombus;whiteSpace=wrap;html=1;shadow=0;fontFamily=Helvetica;fontSize=12;align=center;strokeWidth=1;spacing=6;spacingTop=-4;fillColor=#dae8fc;strokeColor=#6c8ebf;" vertex="1" parent="WIyWlLk6GJQsqaUBKTNV-1">
          <mxGeometry x="600" y="350" width="177" height="122.5" as="geometry" />
        </mxCell>
        <mxCell id="8x2u2lRudaeTyQuYko0E-22" value="&lt;span style=&quot;font-size: 8px;&quot;&gt;Sign_in&lt;/span&gt;" style="text;html=1;align=center;verticalAlign=middle;resizable=0;points=[];autosize=1;strokeColor=none;fillColor=none;spacing=-1;spacingTop=-10;spacingBottom=-4;" vertex="1" parent="WIyWlLk6GJQsqaUBKTNV-1">
          <mxGeometry x="285" y="210" width="40" as="geometry" />
        </mxCell>
        <mxCell id="8x2u2lRudaeTyQuYko0E-23" value="&lt;font style=&quot;font-size: 12px;&quot;&gt;Yes&lt;/font&gt;" style="edgeStyle=orthogonalEdgeStyle;rounded=0;html=1;jettySize=auto;orthogonalLoop=1;fontSize=11;endArrow=block;endFill=0;endSize=8;strokeWidth=1;shadow=0;labelBackgroundColor=none;exitX=1;exitY=0.5;exitDx=0;exitDy=0;" edge="1" parent="WIyWlLk6GJQsqaUBKTNV-1" source="8x2u2lRudaeTyQuYko0E-20" target="8x2u2lRudaeTyQuYko0E-24">
          <mxGeometry x="-0.6" y="-10" relative="1" as="geometry">
            <mxPoint as="offset" />
            <mxPoint x="730" y="405" as="sourcePoint" />
            <mxPoint x="870" y="400" as="targetPoint" />
            <Array as="points" />
          </mxGeometry>
        </mxCell>
        <mxCell id="8x2u2lRudaeTyQuYko0E-24" value="Fetch patient&amp;nbsp;&lt;div&gt;information&amp;nbsp;&lt;/div&gt;" style="rounded=0;whiteSpace=wrap;html=1;fontSize=12;glass=0;strokeWidth=1;shadow=0;fillColor=#f8cecc;strokeColor=#b85450;" vertex="1" parent="WIyWlLk6GJQsqaUBKTNV-1">
          <mxGeometry x="870" y="381.25" width="80" height="60" as="geometry" />
        </mxCell>
        <mxCell id="8x2u2lRudaeTyQuYko0E-28" value="&lt;font style=&quot;font-size: 10px;&quot;&gt;Returen to choices&amp;nbsp;&lt;/font&gt;" style="edgeStyle=orthogonalEdgeStyle;rounded=0;html=1;jettySize=auto;orthogonalLoop=1;fontSize=11;endArrow=block;endFill=0;endSize=8;strokeWidth=1;shadow=0;labelBackgroundColor=none;exitX=0.415;exitY=0.008;exitDx=0;exitDy=0;exitPerimeter=0;" edge="1" parent="WIyWlLk6GJQsqaUBKTNV-1" source="8x2u2lRudaeTyQuYko0E-24">
          <mxGeometry x="-0.063" y="-10" relative="1" as="geometry">
            <mxPoint as="offset" />
            <mxPoint x="808.5" y="300" as="sourcePoint" />
            <mxPoint x="510" y="415" as="targetPoint" />
            <Array as="points">
              <mxPoint x="903" y="340" />
              <mxPoint x="510" y="340" />
            </Array>
          </mxGeometry>
        </mxCell>
        <mxCell id="8x2u2lRudaeTyQuYko0E-31" value="&lt;font style=&quot;font-size: 12px;&quot;&gt;No&lt;/font&gt;" style="edgeStyle=orthogonalEdgeStyle;rounded=0;html=1;jettySize=auto;orthogonalLoop=1;fontSize=11;endArrow=block;endFill=0;endSize=8;strokeWidth=1;shadow=0;labelBackgroundColor=none;exitX=0;exitY=1;exitDx=0;exitDy=0;" edge="1" parent="WIyWlLk6GJQsqaUBKTNV-1" source="8x2u2lRudaeTyQuYko0E-20">
          <mxGeometry x="-0.1678" y="16" relative="1" as="geometry">
            <mxPoint as="offset" />
            <mxPoint x="727" y="425" as="sourcePoint" />
            <mxPoint x="688" y="510" as="targetPoint" />
            <Array as="points">
              <mxPoint x="620" y="442" />
              <mxPoint x="620" y="510" />
            </Array>
          </mxGeometry>
        </mxCell>
        <mxCell id="8x2u2lRudaeTyQuYko0E-32" value="&lt;font style=&quot;font-size: 10px;&quot;&gt;add&lt;/font&gt;" style="edgeStyle=orthogonalEdgeStyle;rounded=0;html=1;jettySize=auto;orthogonalLoop=1;fontSize=11;endArrow=block;endFill=0;endSize=8;strokeWidth=1;shadow=0;labelBackgroundColor=none;exitX=0.5;exitY=1;exitDx=0;exitDy=0;entryX=0.5;entryY=0;entryDx=0;entryDy=0;" edge="1" parent="WIyWlLk6GJQsqaUBKTNV-1" source="8x2u2lRudaeTyQuYko0E-11" target="8x2u2lRudaeTyQuYko0E-34">
          <mxGeometry x="0.1555" y="21" relative="1" as="geometry">
            <mxPoint as="offset" />
            <mxPoint x="559" y="590" as="sourcePoint" />
            <mxPoint x="559" y="640" as="targetPoint" />
            <Array as="points">
              <mxPoint x="560" y="600" />
              <mxPoint x="559" y="600" />
              <mxPoint x="559" y="650" />
              <mxPoint x="560" y="650" />
            </Array>
          </mxGeometry>
        </mxCell>
        <mxCell id="8x2u2lRudaeTyQuYko0E-34" value="Add Patient&amp;nbsp; information" style="rounded=0;whiteSpace=wrap;html=1;fontSize=12;glass=0;strokeWidth=1;shadow=0;fillColor=#f8cecc;strokeColor=#b85450;" vertex="1" parent="WIyWlLk6GJQsqaUBKTNV-1">
          <mxGeometry x="520" y="660" width="80" height="60" as="geometry" />
        </mxCell>
        <mxCell id="8x2u2lRudaeTyQuYko0E-40" value="&lt;span style=&quot;font-size: 10px;&quot;&gt;Patient sign_up&lt;/span&gt;" style="edgeStyle=orthogonalEdgeStyle;rounded=0;html=1;jettySize=auto;orthogonalLoop=1;fontSize=11;endArrow=block;endFill=0;endSize=8;strokeWidth=1;shadow=0;labelBackgroundColor=none;exitX=0;exitY=0.5;exitDx=0;exitDy=0;entryX=1;entryY=0.5;entryDx=0;entryDy=0;" edge="1" parent="WIyWlLk6GJQsqaUBKTNV-1" source="8x2u2lRudaeTyQuYko0E-34" target="8x2u2lRudaeTyQuYko0E-41">
          <mxGeometry x="0.0667" y="10" relative="1" as="geometry">
            <mxPoint as="offset" />
            <mxPoint x="341" y="660" as="sourcePoint" />
            <mxPoint x="310" y="680" as="targetPoint" />
            <Array as="points" />
          </mxGeometry>
        </mxCell>
        <mxCell id="8x2u2lRudaeTyQuYko0E-41" value="&lt;font style=&quot;font-size: 10px;&quot;&gt;if successful&amp;nbsp;&lt;/font&gt;&lt;div&gt;&lt;font style=&quot;font-size: 10px;&quot;&gt;sign_up&amp;nbsp;&lt;/font&gt;&lt;/div&gt;" style="rhombus;whiteSpace=wrap;html=1;shadow=0;fontFamily=Helvetica;fontSize=12;align=center;strokeWidth=1;spacing=6;spacingTop=-4;fillColor=#dae8fc;strokeColor=#6c8ebf;" vertex="1" parent="WIyWlLk6GJQsqaUBKTNV-1">
          <mxGeometry x="270" y="650" width="100" height="80" as="geometry" />
        </mxCell>
        <mxCell id="8x2u2lRudaeTyQuYko0E-43" value="&lt;span style=&quot;font-size: 10px;&quot;&gt;Yes&lt;/span&gt;" style="edgeStyle=orthogonalEdgeStyle;rounded=0;html=1;jettySize=auto;orthogonalLoop=1;fontSize=11;endArrow=block;endFill=0;endSize=8;strokeWidth=1;shadow=0;labelBackgroundColor=none;exitX=0.5;exitY=0;exitDx=0;exitDy=0;entryX=0.346;entryY=0.987;entryDx=0;entryDy=0;entryPerimeter=0;" edge="1" parent="WIyWlLk6GJQsqaUBKTNV-1" source="8x2u2lRudaeTyQuYko0E-41" target="8x2u2lRudaeTyQuYko0E-8">
          <mxGeometry x="-0.698" y="-20" relative="1" as="geometry">
            <mxPoint as="offset" />
            <mxPoint x="325" y="627" as="sourcePoint" />
            <mxPoint x="320" y="550" as="targetPoint" />
            <Array as="points">
              <mxPoint x="320" y="600" />
              <mxPoint x="362" y="600" />
            </Array>
          </mxGeometry>
        </mxCell>
        <mxCell id="8x2u2lRudaeTyQuYko0E-44" value="&lt;font style=&quot;font-size: 10px;&quot;&gt;No&lt;/font&gt;" style="edgeStyle=orthogonalEdgeStyle;rounded=0;html=1;jettySize=auto;orthogonalLoop=1;fontSize=11;endArrow=block;endFill=0;endSize=8;strokeWidth=1;shadow=0;labelBackgroundColor=none;exitX=0.5;exitY=1;exitDx=0;exitDy=0;entryX=0.5;entryY=1;entryDx=0;entryDy=0;" edge="1" parent="WIyWlLk6GJQsqaUBKTNV-1" source="8x2u2lRudaeTyQuYko0E-41" target="8x2u2lRudaeTyQuYko0E-34">
          <mxGeometry x="0.001" y="-20" relative="1" as="geometry">
            <mxPoint as="offset" />
            <mxPoint x="305.48" y="769" as="sourcePoint" />
            <mxPoint x="580" y="750" as="targetPoint" />
            <Array as="points">
              <mxPoint x="320" y="760" />
              <mxPoint x="560" y="760" />
            </Array>
          </mxGeometry>
        </mxCell>
        <mxCell id="8x2u2lRudaeTyQuYko0E-54" value="&lt;span style=&quot;background-color: rgb(251, 251, 251);&quot;&gt;No&lt;/span&gt;&lt;div style=&quot;background-color: rgb(251, 251, 251);&quot;&gt;message&amp;nbsp;&lt;/div&gt;&lt;div style=&quot;background-color: rgb(251, 251, 251);&quot;&gt;(invalid)&lt;/div&gt;" style="edgeLabel;html=1;align=center;verticalAlign=middle;resizable=0;points=[];" vertex="1" connectable="0" parent="8x2u2lRudaeTyQuYko0E-44">
          <mxGeometry x="0.0065" y="-13" relative="1" as="geometry">
            <mxPoint x="1" y="17" as="offset" />
          </mxGeometry>
        </mxCell>
        <mxCell id="8x2u2lRudaeTyQuYko0E-48" value="" style="endArrow=classic;html=1;rounded=0;exitX=0;exitY=0.5;exitDx=0;exitDy=0;entryX=0;entryY=0.25;entryDx=0;entryDy=0;fillColor=#d5e8d4;strokeColor=#82b366;" edge="1" parent="WIyWlLk6GJQsqaUBKTNV-1" source="8x2u2lRudaeTyQuYko0E-41" target="WIyWlLk6GJQsqaUBKTNV-3">
          <mxGeometry width="50" height="50" relative="1" as="geometry">
            <mxPoint x="270" y="480" as="sourcePoint" />
            <mxPoint x="320" y="430" as="targetPoint" />
            <Array as="points">
              <mxPoint x="30" y="690" />
              <mxPoint x="30" y="410" />
              <mxPoint x="30" y="90" />
            </Array>
          </mxGeometry>
        </mxCell>
        <mxCell id="8x2u2lRudaeTyQuYko0E-49" value="" style="endArrow=classic;html=1;rounded=0;exitX=0;exitY=0;exitDx=0;exitDy=0;fillColor=#d5e8d4;strokeColor=#82b366;" edge="1" parent="WIyWlLk6GJQsqaUBKTNV-1" source="WIyWlLk6GJQsqaUBKTNV-10">
          <mxGeometry width="50" height="50" relative="1" as="geometry">
            <mxPoint x="270" y="480" as="sourcePoint" />
            <mxPoint x="150" y="116" as="targetPoint" />
            <Array as="points">
              <mxPoint x="80" y="510" />
              <mxPoint x="80" y="116" />
            </Array>
          </mxGeometry>
        </mxCell>
        <mxCell id="8x2u2lRudaeTyQuYko0E-50" value="" style="endArrow=classic;html=1;rounded=0;entryX=1;entryY=0.25;entryDx=0;entryDy=0;exitX=1;exitY=0.5;exitDx=0;exitDy=0;fillColor=#d5e8d4;strokeColor=#82b366;" edge="1" parent="WIyWlLk6GJQsqaUBKTNV-1" source="8x2u2lRudaeTyQuYko0E-0" target="WIyWlLk6GJQsqaUBKTNV-3">
          <mxGeometry width="50" height="50" relative="1" as="geometry">
            <mxPoint x="270" y="480" as="sourcePoint" />
            <mxPoint x="320" y="430" as="targetPoint" />
            <Array as="points">
              <mxPoint x="620" y="90" />
            </Array>
          </mxGeometry>
        </mxCell>
        <mxCell id="8x2u2lRudaeTyQuYko0E-53" value="" style="endArrow=classic;html=1;rounded=0;exitX=0.867;exitY=0.413;exitDx=0;exitDy=0;exitPerimeter=0;entryX=0.5;entryY=0;entryDx=0;entryDy=0;fillColor=#d5e8d4;strokeColor=#82b366;" edge="1" parent="WIyWlLk6GJQsqaUBKTNV-1" source="8x2u2lRudaeTyQuYko0E-20" target="WIyWlLk6GJQsqaUBKTNV-3">
          <mxGeometry width="50" height="50" relative="1" as="geometry">
            <mxPoint x="270" y="480" as="sourcePoint" />
            <mxPoint x="650" y="50" as="targetPoint" />
            <Array as="points">
              <mxPoint x="753" y="30" />
              <mxPoint x="490" y="30" />
              <mxPoint x="210" y="30" />
            </Array>
          </mxGeometry>
        </mxCell>
      </root>
    </mxGraphModel>
  </diagram>
</mxfile>
